<?xml version="1.0" encoding="UTF-8"?><svg id="calendar-dark" xmlns="http://www.w3.org/2000/svg" viewBox="0 0 184.75 199.41"><defs><style>.cls-1,.cls-2{fill:#231f20;}.cls-1,.cls-3{stroke:#231f20;stroke-miterlimit:10;stroke-width:5px;}.cls-3{fill:none;}</style></defs><g><path class="cls-2" d="M157.29,38.56c-1.24-.13-2.15-.14-2.6-.14h-5.3c3.24,.05,5.93,.1,7.89,.14Z"/><path class="cls-2" d="M105.22,38.42h-7.4c1.89,0,4.18,0,7.4,0Z"/><path class="cls-2" d="M157.33,38.57c.07,0,.14,.02,.21,.02-.07,0-.14-.02-.21-.02Z"/><path class="cls-2" d="M164.93,40.44c.06,.02,.12,.05,.17,.07-.06-.02-.12-.05-.17-.07Z"/><path class="cls-2" d="M38.6,38.42h-8.47c-.49,0-.97,.01-1.45,.04,2.35-.02,5.75-.03,9.92-.04Z"/><path class="cls-2" d="M13.34,44.13c.13-.1,.26-.21,.4-.31-.14,.1-.27,.21-.4,.31Z"/><path class="cls-2" d="M13.95,43.68c5.64-4.08,11.48-4.97,14.52-5.2-5.41,.32-10.4,2.2-14.52,5.2Z"/><path class="cls-2" d="M166.18,40.97c.2,.09,.41,.18,.61,.29-.21-.1-.41-.19-.61-.29Z"/><path class="cls-2" d="M83.91,38.42h0c-13.54,0-27.08,0-40.61,0,10.11,.01,12.64,.09,21.3,.1,7.93,0,8.51-.06,19.31-.1Z"/><path class="cls-2" d="M178.88,52.76c.24,.44,.48,.9,.7,1.38-.22-.47-.46-.93-.7-1.38Z"/><path class="cls-2" d="M178.13,51.49c.18,.3,.37,.61,.55,.93-.18-.31-.36-.62-.55-.93Z"/><path class="cls-2" d="M177.36,50.31c.15,.22,.31,.45,.46,.69-.15-.23-.3-.46-.46-.69Z"/><path class="cls-2" d="M176.58,49.24c.14,.18,.27,.36,.41,.55-.13-.19-.27-.37-.41-.55Z"/><path class="cls-2" d="M12.45,44.85c.08-.07,.16-.13,.24-.2-.08,.07-.16,.13-.24,.2Z"/><path class="cls-2" d="M179.72,54.44c.18,.4,.36,.8,.53,1.22-.17-.41-.34-.82-.53-1.22Z"/><path class="cls-2" d="M167.55,41.64c.97,.51,1.86,1.04,2.66,1.59-.89-.6-1.77-1.13-2.66-1.59Z"/><path class="cls-2" d="M170.5,43.43c.44,.31,.85,.62,1.24,.92-.41-.32-.83-.63-1.24-.92Z"/><path class="cls-2" d="M172.29,44.79c.2,.16,.39,.32,.57,.48-.19-.17-.38-.32-.57-.48Z"/><path class="cls-2" d="M174.99,47.35c.09,.1,.18,.2,.28,.31-.09-.1-.18-.21-.28-.31Z"/><path class="cls-2" d="M175.79,48.26c.12,.14,.23,.28,.35,.43-.12-.14-.23-.29-.35-.43Z"/><path class="cls-2" d="M10.72,46.42s-.07,.07-.11,.1c.03-.03,.07-.07,.11-.1Z"/><path class="cls-2" d="M11.52,45.66c.06-.05,.12-.11,.18-.16-.06,.05-.12,.11-.18,.16Z"/><path class="cls-2" d="M2.6,64.83c.01-.29,.03-.59,.05-.9-.02,.3-.04,.6-.05,.9Z"/><path class="cls-2" d="M180.79,57.13c-.12-.34-.24-.68-.37-1.02,.13,.34,.25,.68,.37,1.02Z"/><path class="cls-2" d="M181.24,58.61c-.1-.36-.2-.71-.31-1.06,.12,.36,.22,.71,.31,1.06Z"/><path class="cls-2" d="M2.81,62.44c.05-.42,.12-.85,.2-1.3-.08,.43-.14,.86-.2,1.3Z"/><path class="cls-2" d="M2.68,63.67c.03-.37,.07-.74,.12-1.14-.05,.38-.09,.76-.12,1.14Z"/><path class="cls-2" d="M3.73,58.08c.29-.99,.66-2.02,1.12-3.06-.43,.99-.8,2.01-1.12,3.06Z"/><path class="cls-2" d="M2.57,65.98v88.03c0,15.22,12.34,27.56,27.56,27.56h124.56c15.22,0,27.56-12.34,27.56-27.56V65.98H2.57Zm14.31,31.68c0-1.4,1.14-2.54,2.54-2.54h12.32c1.4,0,2.54,1.14,2.54,2.54v8.81c0,1.4-1.14,2.54-2.54,2.54h-12.32c-1.4,0-2.54-1.14-2.54-2.54v-8.81Zm.21,18.18c0-1.4,1.14-2.54,2.54-2.54h12.32c1.4,0,2.54,1.14,2.54,2.54v8.81c0,1.4-1.14,2.54-2.54,2.54h-12.32c-1.4,0-2.54-1.14-2.54-2.54v-8.81Zm.11,18.18c0-1.4,1.14-2.54,2.54-2.54h12.32c1.4,0,2.54,1.14,2.54,2.54v8.81c0,1.4-1.14,2.54-2.54,2.54h-12.32c-1.4,0-2.54-1.14-2.54-2.54v-8.81Zm17.62,27c0,1.4-1.14,2.54-2.54,2.54h-12.32c-1.4,0-2.54-1.14-2.54-2.54v-8.81c0-1.4,1.14-2.54,2.54-2.54h12.32c1.4,0,2.54,1.14,2.54,2.54v8.81Zm5.13-63.37c0-1.4,1.14-2.54,2.54-2.54h12.32c1.4,0,2.54,1.14,2.54,2.54v8.81c0,1.4-1.14,2.54-2.54,2.54h-12.32c-1.4,0-2.54-1.14-2.54-2.54v-8.81Zm.21,18.18c0-1.4,1.14-2.54,2.54-2.54h12.32c1.4,0,2.54,1.14,2.54,2.54v8.81c0,1.4-1.14,2.54-2.54,2.54h-12.32c-1.4,0-2.54-1.14-2.54-2.54v-8.81Zm.11,18.18c0-1.4,1.14-2.54,2.54-2.54h12.32c1.4,0,2.54,1.14,2.54,2.54v8.81c0,1.4-1.14,2.54-2.54,2.54h-12.32c-1.4,0-2.54-1.14-2.54-2.54v-8.81Zm17.62,27c0,1.4-1.14,2.54-2.54,2.54h-12.32c-1.4,0-2.54-1.14-2.54-2.54v-8.81c0-1.4,1.14-2.54,2.54-2.54h12.32c1.4,0,2.54,1.14,2.54,2.54v8.81Zm4.99-81.55c0-1.4,1.14-2.54,2.54-2.54h12.32c1.4,0,2.54,1.14,2.54,2.54v8.81c0,1.4-1.14,2.54-2.54,2.54h-12.32c-1.4,0-2.54-1.14-2.54-2.54v-8.81Zm.14,18.18c0-1.4,1.14-2.54,2.54-2.54h12.32c1.4,0,2.54,1.14,2.54,2.54v8.81c0,1.4-1.14,2.54-2.54,2.54h-12.32c-1.4,0-2.54-1.14-2.54-2.54v-8.81Zm.21,18.18c0-1.4,1.14-2.54,2.54-2.54h12.32c1.4,0,2.54,1.14,2.54,2.54v8.81c0,1.4-1.14,2.54-2.54,2.54h-12.32c-1.4,0-2.54-1.14-2.54-2.54v-8.81Zm.11,18.18c0-1.4,1.14-2.54,2.54-2.54h12.32c1.4,0,2.54,1.14,2.54,2.54v8.81c0,1.4-1.14,2.54-2.54,2.54h-12.32c-1.4,0-2.54-1.14-2.54-2.54v-8.81Zm17.62,27c0,1.4-1.14,2.54-2.54,2.54h-12.32c-1.4,0-2.54-1.14-2.54-2.54v-8.81c0-1.4,1.14-2.54,2.54-2.54h12.32c1.4,0,2.54,1.14,2.54,2.54v8.81Zm4.99-81.55c0-1.4,1.14-2.54,2.54-2.54h12.32c1.4,0,2.54,1.14,2.54,2.54v8.81c0,1.4-1.14,2.54-2.54,2.54h-12.32c-1.4,0-2.54-1.14-2.54-2.54v-8.81Zm.14,18.18c0-1.4,1.14-2.54,2.54-2.54h12.32c1.4,0,2.54,1.14,2.54,2.54v8.81c0,1.4-1.14,2.54-2.54,2.54h-12.32c-1.4,0-2.54-1.14-2.54-2.54v-8.81Zm.21,18.18c0-1.4,1.14-2.54,2.54-2.54h12.32c1.4,0,2.54,1.14,2.54,2.54v8.81c0,1.4-1.14,2.54-2.54,2.54h-12.32c-1.4,0-2.54-1.14-2.54-2.54v-8.81Zm.11,18.18c0-1.4,1.14-2.54,2.54-2.54h12.32c1.4,0,2.54,1.14,2.54,2.54v8.81c0,1.4-1.14,2.54-2.54,2.54h-12.32c-1.4,0-2.54-1.14-2.54-2.54v-8.81Zm17.62,27c0,1.4-1.14,2.54-2.54,2.54h-12.32c-1.4,0-2.54-1.14-2.54-2.54v-8.81c0-1.4,1.14-2.54,2.54-2.54h12.32c1.4,0,2.54,1.14,2.54,2.54v8.81Zm4.99-81.55c0-1.4,1.14-2.54,2.54-2.54h12.32c1.4,0,2.54,1.14,2.54,2.54v8.81c0,1.4-1.14,2.54-2.54,2.54h-12.32c-1.4,0-2.54-1.14-2.54-2.54v-8.81Zm.14,18.18c0-1.4,1.14-2.54,2.54-2.54h12.32c1.4,0,2.54,1.14,2.54,2.54v8.81c0,1.4-1.14,2.54-2.54,2.54h-12.32c-1.4,0-2.54-1.14-2.54-2.54v-8.81Zm.21,18.18c0-1.4,1.14-2.54,2.54-2.54h12.32c1.4,0,2.54,1.14,2.54,2.54v8.81c0,1.4-1.14,2.54-2.54,2.54h-12.32c-1.4,0-2.54-1.14-2.54-2.54v-8.81Zm17.51,27c0,1.4-1.14,2.54-2.54,2.54h-12.32c-1.4,0-2.54-1.14-2.54-2.54v-8.81c0-1.4,1.14-2.54,2.54-2.54h12.32c1.4,0,2.54,1.14,2.54,2.54v8.81Zm4.91-63.37c0-1.4,1.14-2.54,2.54-2.54h12.32c1.4,0,2.54,1.14,2.54,2.54v8.81c0,1.4-1.14,2.54-2.54,2.54h-12.32c-1.4,0-2.54-1.14-2.54-2.54v-8.81Zm.14,18.18c0-1.4,1.14-2.54,2.54-2.54h12.32c1.4,0,2.54,1.14,2.54,2.54v8.81c0,1.4-1.14,2.54-2.54,2.54h-12.32c-1.4,0-2.54-1.14-2.54-2.54v-8.81Zm.21,18.18c0-1.4,1.14-2.54,2.54-2.54h12.32c1.4,0,2.54,1.14,2.54,2.54v8.81c0,1.4-1.14,2.54-2.54,2.54h-12.32c-1.4,0-2.54-1.14-2.54-2.54v-8.81Zm17.51,27c0,1.4-1.14,2.54-2.54,2.54h-12.32c-1.4,0-2.54-1.14-2.54-2.54v-8.81c0-1.4,1.14-2.54,2.54-2.54h12.32c1.4,0,2.54,1.14,2.54,2.54v8.81Zm5.2-63.37c0-1.4,1.14-2.54,2.54-2.54h12.32c1.4,0,2.54,1.14,2.54,2.54v8.81c0,1.4-1.14,2.54-2.54,2.54h-12.32c-1.4,0-2.54-1.14-2.54-2.54v-8.81Zm.14,18.18c0-1.4,1.14-2.54,2.54-2.54h12.32c1.4,0,2.54,1.14,2.54,2.54v8.81c0,1.4-1.14,2.54-2.54,2.54h-12.32c-1.4,0-2.54-1.14-2.54-2.54v-8.81Zm.21,18.18c0-1.4,1.14-2.54,2.54-2.54h12.32c1.4,0,2.54,1.14,2.54,2.54v8.81c0,1.4-1.14,2.54-2.54,2.54h-12.32c-1.4,0-2.54-1.14-2.54-2.54v-8.81Zm17.51,27c0,1.4-1.14,2.54-2.54,2.54h-12.32c-1.4,0-2.54-1.14-2.54-2.54v-8.81c0-1.4,1.14-2.54,2.54-2.54h12.32c1.4,0,2.54,1.14,2.54,2.54v8.81Z"/><path class="cls-2" d="M3.32,59.6c.11-.45,.23-.92,.37-1.39-.13,.46-.26,.92-.37,1.39Z"/><path class="cls-2" d="M3.02,61.08c.08-.44,.17-.9,.28-1.36-.1,.45-.2,.9-.28,1.36Z"/><path class="cls-2" d="M181.6,60.03c-.08-.36-.16-.72-.26-1.08,.1,.37,.18,.73,.26,1.08Z"/><path class="cls-2" d="M8.11,49.42c-.57,.76-1.1,1.54-1.59,2.36,.53-.88,1.07-1.67,1.59-2.35h0Z"/><path class="cls-2" d="M5.77,53.1c.19-.35,.37-.69,.57-1.01-.19,.33-.38,.67-.57,1.01Z"/><path class="cls-2" d="M8.76,48.59c.07-.09,.15-.18,.23-.28-.08,.09-.15,.18-.23,.28Z"/><path class="cls-2" d="M9.69,47.5s.03-.04,.05-.06c-.02,.02-.03,.04-.05,.06Z"/><path class="cls-2" d="M182.13,63.47c-.01-.15-.03-.3-.04-.45,.02,.15,.03,.3,.04,.45Z"/><path class="cls-2" d="M5.02,54.63c.17-.38,.34-.74,.52-1.09-.18,.36-.36,.72-.52,1.09Z"/><path class="cls-2" d="M181.82,61.18c-.05-.29-.1-.57-.16-.85,.06,.29,.11,.57,.16,.85Z"/><path class="cls-2" d="M181.99,62.26c-.03-.19-.05-.38-.08-.57,.03,.2,.05,.38,.08,.57Z"/><path class="cls-2" d="M182.22,64.74c0-.12-.01-.24-.02-.36,0,.12,.01,.24,.02,.36Z"/></g><path class="cls-3" d="M154.62,181.57H30.06c-15.22,0-27.56-12.34-27.56-27.56V65.98c0-15.22,12.34-27.56,27.56-27.56,21.63,0,43.26,0,64.89,0,19.89,0,39.77,0,59.66,0,1.84,0,11.6,.18,19.49,8.07,4.99,4.99,8.07,11.88,8.07,19.49v88.03c0,15.22-12.34,27.56-27.56,27.56Z"/><path class="cls-1" d="M149.75,38.26c.5-.71,.8-1.58,.8-2.52V15.46c0-2.43-1.97-4.4-4.4-4.4s-4.4,1.97-4.4,4.4v20.28c0,.9,.27,1.73,.73,2.43,2.68,.03,5.12,.06,7.28,.09Z"/><path class="cls-1" d="M98.43,37.34c.5-.71,.8-1.58,.8-2.52V14.54c0-2.43-1.97-4.4-4.4-4.4s-4.4,1.97-4.4,4.4v20.28c0,.9,.27,1.73,.73,2.43,2.68,.03,5.12,.06,7.28,.09Z"/><path class="cls-1" d="M44.5,38.32c.5-.71,.8-1.58,.8-2.52V15.52c0-2.43-1.97-4.4-4.4-4.4s-4.4,1.97-4.4,4.4v20.28c0,.9,.27,1.73,.73,2.43,2.68,.03,5.12,.06,7.28,.09Z"/></svg>