<?xml version="1.0" encoding="UTF-8"?><svg id="calendar-dark_copy" xmlns="http://www.w3.org/2000/svg" viewBox="0 0 184.75 199.41"><defs><style>.cls-1,.cls-2{fill:#231f20;}.cls-1,.cls-3{stroke:#231f20;stroke-miterlimit:10;stroke-width:5px;}.cls-3{fill:none;}</style></defs><path class="cls-3" d="M154.69,181.57H30.13c-15.22,0-27.56-12.34-27.56-27.56V65.98c0-15.22,12.34-27.56,27.56-27.56,21.63,0,43.26,0,64.89,0,19.89,0,39.77,0,59.66,0,1.84,0,11.6,.18,19.49,8.07,4.99,4.99,8.07,11.88,8.07,19.49v88.03c0,15.22-12.34,27.56-27.56,27.56Z"/><path class="cls-1" d="M2.57,65.98H182.25c0-2.29-.28-5.96-1.91-10.1-1.82-4.61-4.48-7.7-6.16-9.38-1.51-1.5-3.86-3.48-7.12-5.11-3.89-1.95-7.45-2.59-9.75-2.82-3.64-.08-9.75-.19-17.33-.24-12.43-.09-16.05,.08-34.75,.1-10.94,.02-11.19-.04-21.3,0-10.8,.04-11.38,.1-19.31,.1-8.67,0-11.19-.09-21.31-.1-6.33,0-11.44,.02-14.62,.04-3.01,.21-9.07,1.07-14.89,5.33-2.56,1.88-4.4,3.92-5.69,5.63-1.06,1.4-2.22,3.22-3.2,5.45-1.95,4.43-2.32,8.49-2.33,11.1Z"/><rect class="cls-1" x="90.42" y="9.89" width="8.81" height="29.09" rx="4.4" ry="4.4"/><rect class="cls-1" x="36.49" y="11.05" width="8.81" height="29.09" rx="4.4" ry="4.4"/><rect class="cls-1" x="141.74" y="11.05" width="8.81" height="29.09" rx="4.4" ry="4.4"/><rect class="cls-2" x="62.87" y="76.94" width="17.4" height="13.89" rx="2.54" ry="2.54"/><rect class="cls-2" x="85.93" y="76.94" width="17.4" height="13.89" rx="2.54" ry="2.54"/><rect class="cls-2" x="108.99" y="76.94" width="17.4" height="13.89" rx="2.54" ry="2.54"/><rect class="cls-2" x="131.77" y="76.94" width="17.4" height="13.89" rx="2.54" ry="2.54"/><rect class="cls-2" x="154.84" y="76.94" width="17.4" height="13.89" rx="2.54" ry="2.54"/><rect class="cls-2" x="16.88" y="95.12" width="17.4" height="13.89" rx="2.54" ry="2.54"/><rect class="cls-2" x="39.95" y="95.12" width="17.4" height="13.89" rx="2.54" ry="2.54"/><rect class="cls-2" x="63.01" y="95.12" width="17.4" height="13.89" rx="2.54" ry="2.54"/><rect class="cls-2" x="86.07" y="95.12" width="17.4" height="13.89" rx="2.54" ry="2.54"/><rect class="cls-2" x="109.14" y="95.12" width="17.4" height="13.89" rx="2.54" ry="2.54"/><rect class="cls-2" x="131.91" y="95.12" width="17.4" height="13.89" rx="2.54" ry="2.54"/><rect class="cls-2" x="154.98" y="95.12" width="17.4" height="13.89" rx="2.54" ry="2.54"/><rect class="cls-2" x="17.1" y="113.3" width="17.4" height="13.89" rx="2.54" ry="2.54"/><rect class="cls-2" x="40.16" y="113.3" width="17.4" height="13.89" rx="2.54" ry="2.54"/><rect class="cls-2" x="63.22" y="113.3" width="17.4" height="13.89" rx="2.54" ry="2.54"/><rect class="cls-2" x="86.29" y="113.3" width="17.4" height="13.89" rx="2.54" ry="2.54"/><rect class="cls-2" x="109.35" y="113.3" width="17.4" height="13.89" rx="2.54" ry="2.54"/><rect class="cls-2" x="132.13" y="113.3" width="17.4" height="13.89" rx="2.54" ry="2.54"/><rect class="cls-2" x="155.19" y="113.3" width="17.4" height="13.89" rx="2.54" ry="2.54"/><rect class="cls-2" x="17.2" y="131.49" width="17.4" height="13.89" rx="2.54" ry="2.54"/><rect class="cls-2" x="40.27" y="131.49" width="17.4" height="13.89" rx="2.54" ry="2.54"/><rect class="cls-2" x="63.33" y="131.49" width="17.4" height="13.89" rx="2.54" ry="2.54"/><rect class="cls-2" x="86.39" y="131.49" width="17.4" height="13.89" rx="2.54" ry="2.54"/><rect class="cls-2" x="109.46" y="131.49" width="17.4" height="13.89" rx="2.54" ry="2.54"/><rect class="cls-2" x="132.23" y="131.49" width="17.4" height="13.89" rx="2.54" ry="2.54"/><rect class="cls-2" x="155.3" y="131.49" width="17.4" height="13.89" rx="2.54" ry="2.54"/><rect class="cls-2" x="17.42" y="149.67" width="17.4" height="13.89" rx="2.54" ry="2.54"/><rect class="cls-2" x="40.48" y="149.67" width="17.4" height="13.89" rx="2.54" ry="2.54"/><rect class="cls-2" x="63.54" y="149.67" width="17.4" height="13.89" rx="2.54" ry="2.54"/><rect class="cls-2" x="86.61" y="149.67" width="17.4" height="13.89" rx="2.54" ry="2.54"/></svg>