<?xml version="1.0" encoding="UTF-8"?><svg id="home-dark" xmlns="http://www.w3.org/2000/svg" viewBox="0 0 184.75 199.41"><defs><style>.cls-1{fill:#231f20;stroke:#231f20;stroke-miterlimit:10;stroke-width:5px;}</style></defs><path class="cls-1" d="M8.21,94.5L89.04,20.46c1.24-1.13,3.13-1.15,4.39-.03l83.01,73.94c2.25,2,.83,5.72-2.18,5.72h-16.1c-1.81,0-3.27,1.47-3.27,3.28l-.02,77c0,1.81-1.46,3.28-3.27,3.28h-34.51c-1.81,0-3.27-1.47-3.27-3.27v-49.45c0-1.81-1.46-3.27-3.27-3.27l-36.56-.05c-1.8,0-3.26,1.45-3.28,3.24l-.45,49.03c-.02,1.78-1.45,3.22-3.23,3.24l-33.91,.45c-1.84,.02-3.34-1.47-3.32-3.31l1.38-76.54c.02-1.81-1.42-3.29-3.23-3.31l-17.58-.22c-2.97-.04-4.36-3.68-2.17-5.69Z"/></svg>